Coordinates
version=1
nRows=65
nColumns=12
inDegrees=yes

Units are S.I. units (second, meters, Newtons, ...)
Angles are in degrees

endheader
time	SC_y	SC_z	SC_x	AC_y	AC_z	AC_x	GH_y	GH_z	GH_yy	EL_x	PS_y
       0.0              -19.58          22.48          15.88          46.06         0.9352          1.862          50.33          4.936          170.9          34.14          54.99
   0.04473              -19.58          22.48          15.88          46.06         0.9322          1.859          50.33           4.94          170.9          34.15          54.99
   0.08945              -19.59          22.48          15.88          46.06          0.929          1.856          50.33          4.945          170.9          34.17          54.98
    0.1342              -19.59          22.48          15.88          46.06         0.9256          1.853          50.33           4.95          170.9          34.18          54.98
    0.1789              -19.59          22.48          15.88          46.06          0.922           1.85          50.33          4.955          170.9           34.2          54.97
    0.2236              -19.59          22.48          15.88          46.06         0.9181          1.847          50.33           4.96          170.9          34.22          54.97
    0.2684               -19.6          22.48          15.88          46.06          0.914          1.843          50.33          4.966          170.9          34.24          54.96
    0.3131               -19.6          22.48          15.89          46.06         0.9096          1.839          50.33          4.972          170.9          34.26          54.96
    0.3578              -19.61          22.49          15.89          46.06         0.9049          1.835          50.33          4.979          170.9          34.28          54.95
    0.4025              -19.61          22.49          15.89          46.06         0.8999           1.83          50.33          4.986          170.9          34.31          54.95
    0.4473              -19.61          22.49          15.89          46.06         0.8944          1.825          50.33          4.993          170.9          34.33          54.94
     0.492              -19.62          22.49          15.89          46.06         0.8886           1.82          50.33          5.001          170.9          34.36          54.93
    0.5367              -19.62          22.49          15.89          46.06         0.8823          1.814          50.33           5.01          170.9          34.39          54.92
    0.5814              -19.63          22.49          15.89          46.05         0.8755          1.808          50.33           5.02          170.9          34.42          54.92
    0.6262              -19.64           22.5           15.9          46.05         0.8682          1.801          50.32           5.03          170.9          34.46          54.91
    0.6709              -19.64           22.5           15.9          46.05         0.8602          1.794          50.32          5.041          170.9          34.49           54.9
    0.7156              -19.65           22.5           15.9          46.05         0.8515          1.786          50.32          5.053          170.9          34.53          54.89
    0.7603              -19.66           22.5           15.9          46.05         0.8421          1.778          50.32          5.066          170.9          34.58          54.87
    0.8051              -19.67          22.51           15.9          46.05         0.8318          1.768          50.32          5.081          170.9          34.63          54.86
    0.8498              -19.68          22.51          15.91          46.05         0.8205          1.758          50.32          5.097          170.9          34.68          54.85
    0.8945              -19.69          22.51          15.91          46.04         0.8081          1.747          50.32          5.114          170.9          34.74          54.83
    0.9392               -19.7          22.52          15.91          46.04         0.7945          1.734          50.31          5.133          170.9           34.8          54.82
     0.984              -19.71          22.52          15.92          46.04         0.7794          1.721          50.31          5.154          170.9          34.87           54.8
     1.029              -19.72          22.52          15.92          46.04         0.7627          1.706          50.31          5.177          170.9          34.95          54.78
     1.073              -19.74          22.53          15.93          46.03         0.7441          1.689          50.31          5.203          170.9          35.04          54.75
     1.118              -19.76          22.53          15.93          46.03         0.7234           1.67          50.31          5.232          170.9          35.14          54.73
     1.163              -19.77          22.54          15.94          46.03         0.7002          1.649           50.3          5.265          170.9          35.25           54.7
     1.208               -19.8          22.55          15.94          46.02         0.6741          1.625           50.3          5.301          170.9          35.37          54.67
     1.252              -19.82          22.56          15.95          46.02         0.6447          1.599          50.29          5.342          170.9          35.51          54.63
     1.297              -19.85          22.57          15.96          46.01         0.6112          1.568          50.29          5.389          170.9          35.67          54.59
     1.342              -19.88          22.58          15.97          46.01          0.573          1.534          50.28          5.443          170.9          35.85          54.54
     1.386              -19.92          22.59          15.98           46.0         0.5291          1.494          50.28          5.504          170.9          36.05          54.49
     1.431              -19.96           22.6          15.99          45.99         0.4785          1.448          50.27          5.575          170.9          36.29          54.42
     1.476              -20.01          22.62           16.0          45.99         0.4196          1.395          50.26          5.657          170.9          36.57          54.35
     1.521              -20.06          22.64          16.02          45.98         0.3508          1.332          50.25          5.753          170.9           36.9          54.27
     1.565              -20.13          22.66          16.04          45.96         0.2697          1.259          50.24          5.866          170.9          37.28          54.17
      1.61              -20.21          22.68          16.06          45.95         0.1732          1.171          50.23          6.001          170.9          37.73          54.05
     1.655              -20.31          22.72          16.09          45.93        0.05764          1.066          50.22          6.163          170.9          38.28           53.9
       1.7              -20.42          22.75          16.12          45.91        -0.0822         0.9394           50.2          6.358          170.9          38.94          53.73
     1.744              -20.56           22.8          16.17          45.88         -0.253         0.7845          50.17          6.597          170.9          39.74          53.52
     1.789              -20.74          22.86          16.22          45.85        -0.4639         0.5933          50.15          6.892          170.9          40.74          53.26
     1.834              -20.96          22.93          16.28          45.81        -0.7268         0.3548          50.11          7.259          170.9          41.98          52.93
     1.878              -21.23          23.02          16.36          45.76         -1.058        0.05445          50.06          7.722          170.9          43.54          52.52
     1.923              -21.58          23.13          16.46           45.7         -1.479        -0.3274          50.01          8.311          170.9          45.53           52.0
     1.968              -22.03          23.28          16.59          45.62         -2.018        -0.8161          49.94          9.064          170.9          48.07          51.34
     2.013               -22.6          23.47          16.76          45.52          -2.71         -1.443          49.84          10.03          170.9          51.33          50.48
     2.057              -23.33          23.71          16.97          45.38         -3.593         -2.244          49.72          11.26          170.9           55.5          49.39
     2.102              -24.25          24.01          17.23          45.21         -4.704         -3.252          49.57          12.82          170.9          60.74          48.02
     2.147              -25.37          24.38          17.56          45.01         -6.057         -4.479          49.39          14.71          170.9          67.12          46.34
     2.192              -26.67           24.8          17.94          44.77         -7.626         -5.902          49.18           16.9          170.9          74.52           44.4
     2.236              -28.08          25.26          18.34          44.52         -9.325         -7.443          48.95          19.28          170.9          82.54           42.3
     2.281              -29.49          25.72          18.75          44.26         -11.02         -8.984          48.72          21.65          170.9          90.55           40.2
     2.326              -30.79          26.15          19.13          44.03         -12.59         -10.41          48.51          23.84          170.9          97.95          38.26
      2.37              -31.91          26.52          19.46          43.82         -13.95         -11.63          48.33          25.74          170.9          104.3          36.59
     2.415              -32.83          26.82          19.72          43.66         -15.06         -12.64          48.18          27.29          170.9          109.6          35.21
      2.46              -33.56          27.06          19.93          43.52         -15.94         -13.44          48.06          28.52          170.9          113.7          34.12
     2.505              -34.13          27.25           20.1          43.42         -16.63         -14.07          47.97          29.49          170.9          117.0          33.27
     2.549              -34.58          27.39          20.23          43.34         -17.17         -14.56          47.89          30.24          170.9          119.5           32.6
     2.594              -34.93          27.51          20.33          43.27         -17.59         -14.94          47.84          30.83          170.9          121.5          32.08
     2.639               -35.2           27.6          20.41          43.22         -17.92         -15.24          47.79          31.29          170.9          123.1          31.67
     2.684              -35.42          27.67          20.47          43.19         -18.19         -15.48          47.76          31.66          170.9          124.3          31.34
     2.728               -35.6          27.73          20.52          43.15          -18.4         -15.67          47.73          31.96          170.9          125.3          31.08
     2.773              -35.74          27.77          20.57          43.13         -18.57         -15.83           47.7          32.19          170.9          126.1          30.87
     2.818              -35.85          27.81           20.6          43.11         -18.71         -15.95          47.69          32.39          170.9          126.8           30.7
     2.862              -35.95          27.84          20.63          43.09         -18.82         -16.06          47.67          32.55          170.9          127.3          30.56
